<?xml version="1.0" encoding="UTF-8"?>
<svg width="400" height="300" viewBox="0 0 400 300" xmlns="http://www.w3.org/2000/svg">
    <!-- Base clara -->
    <rect width="400" height="300" fill="#F5F5F5"/>
    
    <!-- Grid de linhas de impressão 3D -->
    <g stroke="#E0E0E0" stroke-width="0.5">
        <path d="M0 280 L400 280"/>
        <path d="M0 260 L400 260"/>
        <path d="M0 240 L400 240"/>
    </g>
    
    <!-- Porta-Cartas Central -->
    <g transform="translate(150,100)">
        <!-- Base -->
        <path d="M0 0 L100 0 L100 80 L0 80 Z" fill="#7D5B3A"/>
        
        <!-- Divisórias -->
        <path d="M25 0 L25 80" stroke="#4A0404" stroke-width="2"/>
        <path d="M50 0 L50 80" stroke="#4A0404" stroke-width="2"/>
        <path d="M75 0 L75 80" stroke="#4A0404" stroke-width="2"/>
        
        <!-- Cartas (ilustrativas) -->
        <rect x="5" y="10" width="15" height="60" fill="#C2B280"/>
        <rect x="30" y="10" width="15" height="60" fill="#C2B280"/>
        <rect x="55" y="10" width="15" height="60" fill="#C2B280"/>
        <rect x="80" y="10" width="15" height="60" fill="#C2B280"/>
    </g>
    
    <!-- Torre de Dados Esquerda -->
    <g transform="translate(50,120)">
        <!-- Base -->
        <path d="M0 60 L80 60 L70 0 L10 0 Z" fill="#4A0404"/>
        
        <!-- Detalhes -->
        <path d="M20 10 L60 10 L55 50 L25 50 Z" fill="#2F4F4F"/>
        
        <!-- Dados (ilustrativos) -->
        <path d="M30 20 L50 20 L40 35 Z" fill="#C2B280"/>
        <circle cx="40" cy="40" r="5" fill="#C2B280"/>
    </g>
    
    <!-- Organizador de Componentes Direita -->
    <g transform="translate(280,100)">
        <!-- Base -->
        <rect x="0" y="0" width="80" height="100" fill="#7D5B3A"/>
        
        <!-- Compartimentos -->
        <g fill="#4A0404">
            <rect x="10" y="10" width="25" height="25"/>
            <rect x="45" y="10" width="25" height="25"/>
            <rect x="10" y="45" width="25" height="25"/>
            <rect x="45" y="45" width="25" height="25"/>
        </g>
        
        <!-- Componentes (ilustrativos) -->
        <g fill="#C2B280">
            <circle cx="22" cy="22" r="8"/>
            <circle cx="57" cy="22" r="8"/>
            <rect x="15" y="50" width="15" height="15"/>
            <rect x="50" y="50" width="15" height="15"/>
        </g>
    </g>
    
    <!-- Sistema de encaixe (indicativo) -->
    <g transform="translate(150,220)" opacity="0.5">
        <rect x="0" y="0" width="100" height="10" fill="#2F4F4F"/>
        <path d="M20 0 L30 -10 L70 -10 L80 0" fill="none" stroke="#2F4F4F"/>
    </g>
</svg>