<?xml version="1.0" encoding="UTF-8"?>
<svg width="400" height="300" viewBox="0 0 400 300" xmlns="http://www.w3.org/2000/svg">
    <!-- Base clara -->
    <rect width="400" height="300" fill="#F5F5F5"/>
    
    <!-- Grid de linhas de impressão 3D -->
    <g stroke="#E0E0E0" stroke-width="0.5">
        <path d="M0 280 L400 280"/>
        <path d="M0 260 L400 260"/>
        <path d="M0 240 L400 240"/>
    </g>
    
    <!-- Terreno Central: Dungeon -->
    <g transform="translate(150,100)">
        <!-- Base/Chão -->
        <rect width="100" height="100" fill="#7D5B3A"/>
        
        <!-- Paredes -->
        <path d="M0 0 L0 100 L10 90 L10 10 Z" fill="#4A0404"/>
        <path d="M100 0 L100 100 L90 90 L90 10 Z" fill="#4A0404"/>
        
        <!-- Textura de Pedra -->
        <g fill="#2F4F4F" opacity="0.3">
            <rect x="20" y="20" width="20" height="20"/>
            <rect x="60" y="20" width="20" height="20"/>
            <rect x="40" y="50" width="20" height="20"/>
            <rect x="20" y="80" width="20" height="20"/>
            <rect x="60" y="80" width="20" height="20"/>
        </g>
    </g>
    
    <!-- Terreno Esquerda: Fonte -->
    <g transform="translate(50,150)">
        <!-- Base Circular -->
        <circle cx="40" cy="40" r="35" fill="#7D5B3A"/>
        
        <!-- Fonte -->
        <circle cx="40" cy="40" r="25" fill="#2F4F4F"/>
        <circle cx="40" cy="40" r="20" fill="#4A0404"/>
        
        <!-- Água (efeito) -->
        <circle cx="40" cy="40" r="15" fill="#C2B280" opacity="0.5"/>
    </g>
    
    <!-- Terreno Direita: Escada -->
    <g transform="translate(280,120)">
        <!-- Degraus -->
        <rect x="0" y="0" width="80" height="20" fill="#7D5B3A"/>
        <rect x="0" y="20" width="70" height="20" fill="#7D5B3A"/>
        <rect x="0" y="40" width="60" height="20" fill="#7D5B3A"/>
        <rect x="0" y="60" width="50" height="20" fill="#7D5B3A"/>
        
        <!-- Trilhos -->
        <path d="M0 0 L0 80 L5 75 L5 5 Z" fill="#4A0404"/>
        <path d="M80 0 L80 20 L75 15 L75 5 Z" fill="#4A0404"/>
    </g>
    
    <!-- Sistema de Encaixe (indicativo) -->
    <g transform="translate(150,220)" opacity="0.5">
        <circle cx="0" cy="0" r="5" fill="#2F4F4F"/>
        <circle cx="100" cy="0" r="5" fill="#2F4F4F"/>
        <rect x="45" y="-5" width="10" height="10" fill="#2F4F4F"/>
    </g>
</svg>